<?xml version="1.0" standalone="no"?>
<!DOCTYPE svg PUBLIC "-//W3C//DTD SVG 20010904//EN"
 "http://www.w3.org/TR/2001/REC-SVG-20010904/DTD/svg10.dtd">
<svg version="1.0" xmlns="http://www.w3.org/2000/svg"
 width="358.000000pt" height="358.000000pt" viewBox="0 0 358.000000 358.000000"
 preserveAspectRatio="xMidYMid meet">
<metadata>
Created by potrace 1.11, written by Peter Selinger 2001-2013
</metadata>
<g transform="translate(0.000000,358.000000) scale(0.100000,-0.100000)"
fill="#000000" stroke="none">
<path d="M1540 3564 c-893 -134 -1545 -889 -1539 -1784 3 -410 135 -784 390
-1106 265 -334 628 -553 1069 -645 135 -28 438 -35 575 -14 496 78 897 316
1193 711 242 322 363 711 349 1124 -13 387 -137 733 -373 1037 -286 368 -692
604 -1164 676 -121 19 -376 19 -500 1z m460 -249 c263 -45 477 -129 665 -261
100 -69 110 -78 225 -194 232 -234 377 -528 425 -865 13 -88 13 -358 1 -420
-4 -16 -14 -66 -22 -110 -87 -436 -405 -845 -820 -1053 -109 -55 -257 -105
-390 -133 -85 -17 -144 -22 -269 -23 -176 -1 -229 4 -362 33 -525 117 -955
508 -1123 1021 -57 172 -74 285 -74 485 0 188 13 280 65 450 175 569 670 988
1264 1069 97 14 340 14 415 1z"/>
<path d="M590 1867 l0 -737 781 0 781 0 -21 33 c-12 17 -55 88 -97 157 -146
240 -543 886 -601 976 l-58 91 0 -619 c0 -340 -2 -618 -5 -618 -3 0 -25 37
-49 83 -24 45 -60 114 -81 152 -21 39 -77 144 -125 235 -48 91 -107 201 -130
245 -38 71 -131 247 -263 495 -24 47 -57 108 -73 135 -15 28 -35 63 -43 80
-14 26 -15 -39 -16 -708z"/>
<path d="M2630 2403 c-272 -48 -469 -222 -537 -474 -27 -100 -23 -254 10 -350
53 -156 153 -282 288 -362 138 -81 315 -107 467 -69 46 12 104 31 128 43 l44
22 0 558 0 557 -63 26 c-108 45 -247 65 -337 49z"/>
</g>
</svg>
